# Blender 4.3.2
# www.blender.org
mtllib powerSupply.mtl
o Cube
v 0.197338 0.122590 -0.057684
v 0.197338 0.050526 -0.057684
v 0.197338 0.122590 0.057684
v 0.197338 0.050526 0.057684
v -0.200000 0.180000 -0.100000
v -0.200000 -0.180000 -0.100000
v -0.200000 0.180000 0.100000
v -0.200000 -0.180000 0.100000
v 0.200000 0.180000 -0.100000
v 0.199924 -0.155354 0.026755
v 0.200000 0.180000 0.100000
v 0.200013 -0.155485 0.068872
v 0.200000 0.131265 -0.062503
v 0.199872 -0.136807 0.026772
v 0.200000 0.131265 0.062503
v 0.199987 -0.136675 0.068815
v 0.200000 -0.060000 -0.068000
v 0.220000 -0.060000 -0.068000
v 0.200000 -0.077634 -0.062271
v 0.220000 -0.077634 -0.062271
v 0.200000 -0.088532 -0.047271
v 0.220000 -0.088532 -0.047271
v 0.200000 -0.088532 -0.028729
v 0.220000 -0.088532 -0.028729
v 0.200000 -0.077634 -0.013729
v 0.220000 -0.077634 -0.013729
v 0.200000 -0.060000 -0.008000
v 0.220000 -0.060000 -0.008000
v 0.200000 -0.042366 -0.013729
v 0.220000 -0.042366 -0.013729
v 0.200000 -0.031468 -0.028729
v 0.220000 -0.031468 -0.028729
v 0.200000 -0.031468 -0.047271
v 0.220000 -0.031468 -0.047271
v 0.200000 -0.042366 -0.062271
v 0.220000 -0.042366 -0.062271
v 0.200000 -0.180000 0.100000
v 0.200000 -0.180000 -0.100000
v 0.200000 0.041852 0.062503
v 0.200000 0.041852 -0.062503
v 0.203713 -0.155835 0.068872
v 0.203713 -0.155754 0.026755
v 0.203713 -0.137034 0.068815
v 0.203713 -0.137116 0.026772
vn -0.0000 1.0000 -0.0000
vn -0.0000 -0.0000 1.0000
vn -1.0000 -0.0000 -0.0000
vn -0.0000 -1.0000 -0.0000
vn 1.0000 -0.0000 -0.0000
vn -0.0000 -0.0000 -1.0000
vn -0.0997 -0.9950 -0.0024
vn 0.8754 -0.0000 0.4835
vn 0.8754 -0.0000 -0.4835
vn 0.9560 -0.2933 -0.0000
vn 0.9560 0.2933 -0.0000
vn -0.0000 -0.3090 -0.9511
vn -0.0000 -0.8090 -0.5878
vn -0.0000 -0.8090 0.5878
vn -0.0000 -0.3090 0.9511
vn -0.0000 0.3090 0.9511
vn -0.0000 0.8090 0.5878
vn -0.0000 0.8090 -0.5878
vn -0.0000 0.3090 -0.9511
vn 1.0000 0.0020 -0.0004
vn 1.0000 -0.0006 -0.0007
vn 1.0000 0.0001 0.0010
vn 1.0000 0.0001 -0.0003
vn 0.0003 0.0030 1.0000
vn 0.0879 0.9961 -0.0026
vn 0.0001 0.0009 -1.0000
vt 0.333333 0.333333
vt 0.000000 0.333333
vt 0.000000 0.000000
vt 0.333333 0.000000
vt 0.333333 0.333333
vt 0.333333 0.000000
vt 0.666667 0.000000
vt 0.666667 0.333333
vt 1.000000 -0.000000
vt 1.000000 0.333333
vt 0.000000 0.666667
vt 0.333333 0.666667
vt 0.333333 1.000000
vt 0.000000 1.000000
vt 0.924799 0.759259
vt 0.924509 0.891814
vt 0.733915 0.891679
vt 0.734047 0.758473
vt 0.932791 0.908315
vt 0.933092 0.742687
vt 0.997443 0.336657
vt 0.994359 0.998054
vt 0.725709 0.741898
vt 0.725618 0.908304
vt 0.663520 0.998054
vt 0.659681 0.335307
vt 0.712915 0.367255
vt 0.777306 0.372302
vt 0.773542 0.376936
vt 0.717891 0.374829
vt 0.455984 0.687762
vt 0.455984 0.671096
vt 0.474899 0.671096
vt 0.474899 0.687762
vt 0.501858 0.671096
vt 0.501858 0.687762
vt 0.532760 0.671096
vt 0.532760 0.687762
vt 0.559720 0.671096
vt 0.559720 0.687762
vt 0.578635 0.671096
vt 0.578635 0.687762
vt 0.333333 0.687762
vt 0.333333 0.671096
vt 0.352248 0.671096
vt 0.352248 0.687762
vt 0.379208 0.671096
vt 0.379208 0.687762
vt 0.410110 0.671096
vt 0.410110 0.687762
vt 0.342883 0.730508
vt 0.333333 0.714181
vt 0.342883 0.697853
vt 0.367882 0.687762
vt 0.398784 0.687762
vt 0.423784 0.697853
vt 0.433333 0.714181
vt 0.423784 0.730508
vt 0.398784 0.740599
vt 0.367882 0.740599
vt 0.437069 0.671096
vt 0.437069 0.687762
vt 0.333333 0.767017
vt 0.342883 0.750690
vt 0.367882 0.740599
vt 0.398784 0.740599
vt 0.423784 0.750690
vt 0.433333 0.767017
vt 0.423784 0.783344
vt 0.398784 0.793435
vt 0.367882 0.793435
vt 0.342883 0.783344
vt 0.715766 0.414551
vt 0.776809 0.410646
vt 0.774550 0.406336
vt 0.718382 0.407825
s 0
usemtl Material
f 9/1/1 5/2/1 7/3/1 11/4/1
f 37/5/2 11/6/2 7/7/2 8/8/2
f 8/8/3 7/7/3 5/9/3 6/10/3
f 6/11/4 38/12/4 37/13/4 8/14/4
f 2/15/5 1/16/5 3/17/5 4/18/5
f 6/11/6 5/2/6 9/1/6 38/12/6
f 13/19/5 40/20/5 38/21/5 9/22/5
f 39/23/5 15/24/5 11/25/5 37/26/5
f 15/24/5 13/19/5 9/22/5 11/25/5
f 12/27/7 10/28/7 42/29/7 41/30/7
f 1/16/8 2/15/8 40/20/8 13/19/8
f 4/18/9 3/17/9 15/24/9 39/23/9
f 3/17/10 1/16/10 13/19/10 15/24/10
f 2/15/11 4/18/11 39/23/11 40/20/11
f 17/31/12 18/32/12 20/33/12 19/34/12
f 19/34/13 20/33/13 22/35/13 21/36/13
f 21/36/4 22/35/4 24/37/4 23/38/4
f 23/38/14 24/37/14 26/39/14 25/40/14
f 25/40/15 26/39/15 28/41/15 27/42/15
f 27/43/16 28/44/16 30/45/16 29/46/16
f 29/46/17 30/45/17 32/47/17 31/48/17
f 31/48/1 32/47/1 34/49/1 33/50/1
f 20/51/5 18/52/5 36/53/5 34/54/5 32/55/5 30/56/5 28/57/5 26/58/5 24/59/5 22/60/5
f 33/50/18 34/49/18 36/61/18 35/62/18
f 35/62/19 36/61/19 18/32/19 17/31/19
f 17/63/3 19/64/3 21/65/3 23/66/3 25/67/3 27/68/3 29/69/3 31/70/3 33/71/3 35/72/3
f 10/28/20 12/27/20 37/26/20 38/21/20
f 16/73/21 14/74/21 40/20/21 39/23/21
f 14/74/22 10/28/22 38/21/22 40/20/22
f 12/27/23 16/73/23 39/23/23 37/26/23
f 44/75/5 43/76/5 41/30/5 42/29/5
f 16/73/24 12/27/24 41/30/24 43/76/24
f 14/74/25 16/73/25 43/76/25 44/75/25
f 10/28/26 14/74/26 44/75/26 42/29/26
