# Blender 4.3.2
# www.blender.org
mtllib connector.mtl
o Torus
v 0.025000 0.002481 0.043527
v 0.021545 0.005527 0.043527
v 0.015955 0.005420 -0.016098
v 0.015955 -0.000458 -0.016098
v 0.021545 -0.000313 0.043527
v 0.022524 0.002481 -0.026945
v 0.019411 0.005527 -0.025446
v 0.014375 0.005420 -0.023020
v 0.014375 -0.000458 -0.023020
v 0.019411 -0.000313 -0.025446
v 0.015587 0.002481 -0.035643
v 0.013433 0.005527 -0.032942
v 0.009948 0.005420 -0.028572
v 0.009948 -0.000458 -0.028572
v 0.013433 -0.000313 -0.032942
v 0.005563 0.002481 -0.040471
v 0.004794 0.005527 -0.037102
v 0.003550 0.005420 -0.031652
v 0.003550 -0.000458 -0.031652
v 0.004794 -0.000313 -0.037102
v -0.005563 0.002481 -0.040471
v -0.004794 0.005527 -0.037102
v -0.003550 0.005420 -0.031652
v -0.003550 -0.000458 -0.031652
v -0.004794 -0.000313 -0.037102
v -0.015587 0.002481 -0.035643
v -0.013433 0.005527 -0.032942
v -0.009948 0.005420 -0.028572
v -0.009948 -0.000458 -0.028572
v -0.013433 -0.000313 -0.032942
v -0.022524 0.002481 -0.026945
v -0.019412 0.005527 -0.025446
v -0.014375 0.005420 -0.023020
v -0.014375 -0.000458 -0.023020
v -0.019412 -0.000313 -0.025446
v -0.025000 0.002481 0.043527
v -0.021545 0.005527 0.043527
v -0.015955 0.005420 -0.016098
v -0.015955 -0.000458 -0.016098
v -0.021545 -0.000313 0.043527
v -0.022524 0.002481 0.043527
v -0.019412 0.005527 0.043527
v -0.014375 0.005420 -0.009175
v -0.014375 -0.000458 -0.009175
v -0.019412 -0.000313 0.043527
v -0.015587 0.002481 0.043527
v -0.013433 0.005527 0.043527
v -0.009948 0.005420 -0.003623
v -0.009948 -0.000458 -0.003623
v -0.013433 -0.000313 0.043527
v -0.005563 0.002481 0.043527
v -0.004794 0.005527 0.043527
v -0.003550 0.005420 -0.000543
v -0.003550 -0.000458 -0.000543
v -0.004794 -0.000313 0.043527
v 0.005563 0.002481 0.043527
v 0.004794 0.005527 0.043527
v 0.003550 0.005420 -0.000543
v 0.003550 -0.000458 -0.000543
v 0.004794 -0.000313 0.043527
v 0.015587 0.002481 0.043527
v 0.013433 0.005527 0.043527
v 0.009948 0.005420 -0.003623
v 0.009948 -0.000458 -0.003623
v 0.013433 -0.000313 0.043527
v 0.022524 0.002481 0.043527
v 0.019411 0.005527 0.043527
v 0.014375 0.005420 -0.009175
v 0.014375 -0.000458 -0.009175
v 0.019411 -0.000313 0.043527
vn 0.6772 0.7355 -0.0224
vn -0.0275 0.9996 0.0013
vn -0.9749 -0.0000 0.2225
vn 0.0371 -0.9993 -0.0018
vn 0.6450 -0.7639 -0.0213
vn 0.5245 0.7416 -0.4182
vn -0.0154 0.9998 0.0123
vn -0.7818 -0.0000 0.6235
vn 0.0209 -0.9996 -0.0166
vn 0.4991 -0.7697 -0.3980
vn 0.2911 0.7416 -0.6044
vn -0.0086 0.9998 0.0178
vn -0.4339 -0.0000 0.9010
vn 0.0116 -0.9996 -0.0240
vn 0.2770 -0.7697 -0.5751
vn -0.0000 0.7416 -0.6708
vn -0.0000 0.9998 0.0198
vn -0.0000 -0.0000 1.0000
vn -0.0000 -0.9996 -0.0267
vn -0.0000 -0.7697 -0.6384
vn -0.2911 0.7416 -0.6044
vn 0.0086 0.9998 0.0178
vn 0.4339 -0.0000 0.9010
vn -0.0116 -0.9996 -0.0240
vn -0.2770 -0.7697 -0.5751
vn -0.5245 0.7416 -0.4182
vn 0.0154 0.9998 0.0123
vn 0.7818 -0.0000 0.6235
vn -0.0209 -0.9996 -0.0166
vn -0.4991 -0.7697 -0.3980
vn -0.6772 0.7355 -0.0224
vn 0.0275 0.9996 0.0013
vn 0.9749 -0.0000 0.2225
vn -0.0371 -0.9993 -0.0018
vn -0.6450 -0.7639 -0.0213
vn 0.0030 1.0000 -0.0016
vn 0.9749 -0.0000 -0.2225
vn -0.0041 -1.0000 0.0022
vn 0.0011 1.0000 -0.0021
vn 0.7818 -0.0000 -0.6235
vn -0.0015 -1.0000 0.0028
vn 0.0005 1.0000 -0.0023
vn 0.4339 -0.0000 -0.9010
vn -0.0006 -1.0000 0.0032
vn -0.0000 1.0000 -0.0024
vn -0.0000 -0.0000 -1.0000
vn -0.0000 -1.0000 0.0033
vn -0.0005 1.0000 -0.0023
vn -0.4339 -0.0000 -0.9010
vn 0.0006 -1.0000 0.0032
vn -0.0011 1.0000 -0.0021
vn -0.7818 -0.0000 -0.6235
vn 0.0015 -1.0000 0.0028
vn -0.0030 1.0000 -0.0016
vn -0.9749 -0.0000 -0.2225
vn 0.0041 -1.0000 0.0022
vt 0.063088 0.761108
vt 0.086341 0.130299
vt 0.125022 0.145242
vt 0.104128 0.761064
vt 0.169770 0.166779
vt 0.155665 0.228932
vt 0.000982 0.638255
vt 0.002261 0.574515
vt 0.054930 0.575611
vt 0.053682 0.639086
vt 0.625117 0.560853
vt 0.639351 0.622979
vt 0.594593 0.644619
vt 0.572633 0.028644
vt 0.557449 0.659406
vt 0.533022 0.028750
vt 0.150797 0.046017
vt 0.177164 0.077889
vt 0.208843 0.116825
vt 0.003682 0.510866
vt 0.056339 0.512051
vt 0.678576 0.672853
vt 0.647011 0.711868
vt 0.621651 0.742678
vt 0.245239 0.000198
vt 0.254550 0.040107
vt 0.265841 0.089132
vt 0.005144 0.447253
vt 0.057798 0.448459
vt 0.735649 0.700438
vt 0.724481 0.749514
vt 0.715534 0.788070
vt 0.350167 0.000145
vt 0.340785 0.040461
vt 0.329221 0.089235
vt 0.006603 0.383660
vt 0.059261 0.384845
vt 0.799045 0.700206
vt 0.810657 0.748905
vt 0.820072 0.788150
vt 0.444424 0.046315
vt 0.418013 0.078168
vt 0.386139 0.117020
vt 0.008012 0.320101
vt 0.060682 0.321197
vt 0.855950 0.672356
vt 0.887864 0.711273
vt 0.913423 0.741464
vt 0.508529 0.130423
vt 0.469864 0.145398
vt 0.425239 0.166900
vt 0.009261 0.256625
vt 0.061962 0.257456
vt 0.894991 0.622388
vt 0.939698 0.643809
vt 0.976881 0.658458
vt 0.532731 0.760478
vt 0.491693 0.760516
vt 0.439337 0.229053
vt 0.010045 0.193364
vt 0.062797 0.193483
vt 0.908972 0.560199
vt 0.960245 0.028460
vt 0.999855 0.028496
vt 0.510864 0.780789
vt 0.472661 0.761716
vt 0.425481 0.290964
vt 0.009625 0.130531
vt 0.062375 0.129041
vt 0.894984 0.498305
vt 0.941197 0.027425
vt 0.978036 0.009505
vt 0.440915 0.791504
vt 0.419224 0.763620
vt 0.386148 0.340923
vt 0.006656 0.068218
vt 0.059064 0.064166
vt 0.855531 0.448430
vt 0.887708 0.025729
vt 0.908896 0.000145
vt 0.348521 0.791647
vt 0.341251 0.764259
vt 0.329188 0.368837
vt 0.000145 0.005671
vt 0.052150 0.000145
vt 0.798483 0.420636
vt 0.809757 0.025294
vt 0.816929 0.000197
vt 0.247470 0.791882
vt 0.254598 0.764517
vt 0.265934 0.368785
vt 0.010793 0.895566
vt 0.003878 0.831545
vt 0.056287 0.827495
vt 0.062797 0.890040
vt 0.735194 0.420805
vt 0.723140 0.025203
vt 0.716008 0.000145
vt 0.155002 0.791948
vt 0.176616 0.764016
vt 0.208992 0.340928
vt 0.000567 0.766671
vt 0.053318 0.765181
vt 0.678270 0.448757
vt 0.645181 0.025791
vt 0.623963 0.000242
vt 0.085015 0.781384
vt 0.123165 0.762222
vt 0.169608 0.290963
vt 0.000145 0.702229
vt 0.052898 0.702348
vt 0.638955 0.498787
vt 0.591683 0.027579
vt 0.554825 0.009713
s 0
f 1/1/1 6/2/1 7/3/1 2/4/1
f 2/4/2 7/3/2 8/5/2 3/6/2
f 3/7/3 8/8/3 9/9/3 4/10/3
f 4/11/4 9/12/4 10/13/4 5/14/4
f 5/14/5 10/13/5 6/15/5 1/16/5
f 6/2/6 11/17/6 12/18/6 7/3/6
f 7/3/7 12/18/7 13/19/7 8/5/7
f 8/8/8 13/20/8 14/21/8 9/9/8
f 9/12/9 14/22/9 15/23/9 10/13/9
f 10/13/10 15/23/10 11/24/10 6/15/10
f 11/17/11 16/25/11 17/26/11 12/18/11
f 12/18/12 17/26/12 18/27/12 13/19/12
f 13/20/13 18/28/13 19/29/13 14/21/13
f 14/22/14 19/30/14 20/31/14 15/23/14
f 15/23/15 20/31/15 16/32/15 11/24/15
f 16/25/16 21/33/16 22/34/16 17/26/16
f 17/26/17 22/34/17 23/35/17 18/27/17
f 18/28/18 23/36/18 24/37/18 19/29/18
f 19/30/19 24/38/19 25/39/19 20/31/19
f 20/31/20 25/39/20 21/40/20 16/32/20
f 21/33/21 26/41/21 27/42/21 22/34/21
f 22/34/22 27/42/22 28/43/22 23/35/22
f 23/36/23 28/44/23 29/45/23 24/37/23
f 24/38/24 29/46/24 30/47/24 25/39/24
f 25/39/25 30/47/25 26/48/25 21/40/25
f 26/41/26 31/49/26 32/50/26 27/42/26
f 27/42/27 32/50/27 33/51/27 28/43/27
f 28/44/28 33/52/28 34/53/28 29/45/28
f 29/46/29 34/54/29 35/55/29 30/47/29
f 30/47/30 35/55/30 31/56/30 26/48/30
f 31/49/31 36/57/31 37/58/31 32/50/31
f 32/50/32 37/58/32 38/59/32 33/51/32
f 33/52/33 38/60/33 39/61/33 34/53/33
f 34/54/34 39/62/34 40/63/34 35/55/34
f 35/55/35 40/63/35 36/64/35 31/56/35
f 36/57/18 41/65/18 42/66/18 37/58/18
f 37/58/36 42/66/36 43/67/36 38/59/36
f 38/60/37 43/68/37 44/69/37 39/61/37
f 39/62/38 44/70/38 45/71/38 40/63/38
f 40/63/18 45/71/18 41/72/18 36/64/18
f 41/65/18 46/73/18 47/74/18 42/66/18
f 42/66/39 47/74/39 48/75/39 43/67/39
f 43/68/40 48/76/40 49/77/40 44/69/40
f 44/70/41 49/78/41 50/79/41 45/71/41
f 45/71/18 50/79/18 46/80/18 41/72/18
f 46/73/18 51/81/18 52/82/18 47/74/18
f 47/74/42 52/82/42 53/83/42 48/75/42
f 48/76/43 53/84/43 54/85/43 49/77/43
f 49/78/44 54/86/44 55/87/44 50/79/44
f 50/79/18 55/87/18 51/88/18 46/80/18
f 51/81/18 56/89/18 57/90/18 52/82/18
f 52/82/45 57/90/45 58/91/45 53/83/45
f 53/92/46 58/93/46 59/94/46 54/95/46
f 54/86/47 59/96/47 60/97/47 55/87/47
f 55/87/18 60/97/18 56/98/18 51/88/18
f 56/89/18 61/99/18 62/100/18 57/90/18
f 57/90/48 62/100/48 63/101/48 58/91/48
f 58/93/49 63/102/49 64/103/49 59/94/49
f 59/96/50 64/104/50 65/105/50 60/97/50
f 60/97/18 65/105/18 61/106/18 56/98/18
f 61/99/18 66/107/18 67/108/18 62/100/18
f 62/100/51 67/108/51 68/109/51 63/101/51
f 63/102/52 68/110/52 69/111/52 64/103/52
f 64/104/53 69/112/53 70/113/53 65/105/53
f 65/105/18 70/113/18 66/114/18 61/106/18
f 66/107/18 1/1/18 2/4/18 67/108/18
f 67/108/54 2/4/54 3/6/54 68/109/54
f 68/110/55 3/7/55 4/10/55 69/111/55
f 69/112/56 4/11/56 5/14/56 70/113/56
f 70/113/18 5/14/18 1/16/18 66/114/18
