# Blender 4.3.2
# www.blender.org
mtllib led.mtl
o Cylinder
v 0.014421 -0.073920 -0.072499
v 0.014421 0.061499 -0.072499
v 0.041068 -0.073920 -0.061462
v 0.041068 0.061499 -0.061462
v 0.061462 -0.073920 -0.041068
v 0.061462 0.061499 -0.041068
v 0.072499 -0.073920 -0.014421
v 0.072499 0.061499 -0.014421
v 0.072499 -0.073920 0.014421
v 0.072499 0.061499 0.014421
v 0.061462 -0.073920 0.041068
v 0.061462 0.061499 0.041068
v 0.041068 -0.073920 0.061462
v 0.041068 0.061499 0.061462
v 0.014421 -0.073920 0.072499
v 0.014421 0.061499 0.072499
v -0.014421 -0.073920 0.072499
v -0.014421 0.061499 0.072499
v -0.041068 -0.073920 0.061462
v -0.041068 0.061499 0.061462
v -0.061462 -0.073920 0.041068
v -0.061462 0.061499 0.041068
v -0.072499 -0.073920 0.014421
v -0.072499 0.061499 0.014421
v -0.072499 -0.073920 -0.014421
v -0.072499 0.061499 -0.014421
v -0.061462 -0.073920 -0.041068
v -0.061462 0.061499 -0.041068
v -0.041068 -0.073920 -0.061462
v -0.041068 0.061499 -0.061462
v -0.014421 -0.073920 -0.072499
v -0.014421 0.061499 -0.072499
v 0.012219 0.093106 -0.061427
v 0.034796 0.093106 -0.052075
v 0.052075 0.093106 -0.034796
v 0.061427 0.093106 -0.012219
v 0.061427 0.093106 0.012219
v 0.052075 0.093106 0.034796
v 0.034796 0.093106 0.052075
v 0.012219 0.093106 0.061427
v -0.012219 0.093106 0.061427
v -0.034796 0.093106 0.052075
v -0.052075 0.093106 0.034796
v -0.061427 0.093106 0.012219
v -0.061427 0.093106 -0.012219
v -0.052075 0.093106 -0.034796
v -0.034796 0.093106 -0.052075
v -0.012219 0.093106 -0.061427
v 0.002930 0.127364 -0.014728
v 0.008343 0.127364 -0.012486
v 0.012486 0.127364 -0.008343
v 0.014728 0.127364 -0.002930
v 0.014728 0.127364 0.002930
v 0.012486 0.127364 0.008343
v 0.008343 0.127364 0.012486
v 0.002930 0.127364 0.014728
v -0.002930 0.127364 0.014728
v -0.008343 0.127364 0.012486
v -0.012486 0.127364 0.008343
v -0.014728 0.127364 0.002930
v -0.014728 0.127364 -0.002930
v -0.012486 0.127364 -0.008343
v -0.008343 0.127364 -0.012486
v -0.002930 0.127364 -0.014728
v 0.000000 0.129060 -0.000000
v -0.045092 0.113791 0.008969
v 0.045092 0.113791 0.008969
v -0.038227 0.113791 0.025542
v 0.045092 0.113791 -0.008969
v -0.025542 0.113791 0.038227
v 0.038227 0.113791 -0.025542
v -0.008969 0.113791 -0.045092
v -0.008969 0.113791 0.045092
v 0.025542 0.113791 -0.038227
v -0.025542 0.113791 -0.038227
v 0.008969 0.113791 0.045092
v 0.008969 0.113791 -0.045092
v -0.038227 0.113791 -0.025542
v 0.025542 0.113791 0.038227
v 0.038227 0.113791 0.025542
v -0.045092 0.113791 -0.008969
v 0.000000 -0.073920 -0.000000
vn 0.3827 -0.0000 -0.9239
vn 0.7071 -0.0000 -0.7071
vn 0.9239 -0.0000 -0.3827
vn 1.0000 -0.0000 -0.0000
vn 0.9239 -0.0000 0.3827
vn 0.7071 -0.0000 0.7071
vn 0.3827 -0.0000 0.9239
vn -0.0000 -0.0000 1.0000
vn -0.3827 -0.0000 0.9239
vn -0.7071 -0.0000 0.7071
vn -0.9239 -0.0000 0.3827
vn -1.0000 -0.0000 -0.0000
vn -0.9239 -0.0000 -0.3827
vn -0.7071 -0.0000 -0.7071
vn -0.3827 -0.0000 -0.9239
vn -0.3612 0.3306 0.8719
vn -0.8719 0.3306 -0.3612
vn -0.0000 -1.0000 -0.0000
vn 0.5549 0.6198 0.5549
vn 0.6673 0.3306 -0.6673
vn 0.3612 0.3306 0.8719
vn -0.8719 0.3306 0.3612
vn -0.0000 0.3306 -0.9438
vn 0.8719 0.3306 0.3612
vn -0.6673 0.3306 -0.6673
vn 0.8719 0.3306 -0.3612
vn -0.9438 0.3306 -0.0000
vn 0.3612 0.3306 -0.8719
vn -0.6673 0.3306 0.6673
vn -0.0000 0.3306 0.9438
vn 0.6673 0.3306 0.6673
vn -0.3612 0.3306 -0.8719
vn 0.9438 0.3306 -0.0000
vn -0.4081 0.9129 -0.0000
vn 0.0438 0.9934 0.1057
vn -0.7848 0.6198 -0.0000
vn 0.2886 0.9129 0.2886
vn -0.3770 0.9129 -0.1562
vn -0.5549 0.6198 -0.5549
vn -0.0000 0.6198 -0.7848
vn -0.2886 0.9129 -0.2886
vn 0.1562 0.9129 -0.3770
vn -0.0000 0.9129 0.4081
vn -0.1562 0.9129 -0.3770
vn 0.2886 0.9129 -0.2886
vn -0.1562 0.9129 0.3770
vn 0.3770 0.9129 -0.1562
vn -0.2886 0.9129 0.2886
vn 0.4081 0.9129 -0.0000
vn -0.3770 0.9129 0.1562
vn 0.3003 0.6198 0.7250
vn 0.0438 0.9934 -0.1057
vn -0.0000 0.9934 0.1144
vn -0.0438 0.9934 -0.1057
vn 0.0809 0.9934 -0.0809
vn -0.0438 0.9934 0.1057
vn -0.0000 0.9934 -0.1144
vn 0.1057 0.9934 -0.0438
vn -0.0809 0.9934 0.0809
vn 0.1144 0.9934 -0.0000
vn -0.1057 0.9934 0.0438
vn 0.1057 0.9934 0.0438
vn -0.1144 0.9934 -0.0000
vn 0.0809 0.9934 0.0809
vn -0.1057 0.9934 -0.0438
vn -0.7250 0.6198 -0.3003
vn -0.0000 0.9129 -0.4081
vn 0.1562 0.9129 0.3770
vn 0.3003 0.6198 -0.7250
vn -0.0000 0.6198 0.7848
vn -0.3003 0.6198 -0.7250
vn 0.5549 0.6198 -0.5549
vn -0.3003 0.6198 0.7250
vn 0.7250 0.6198 -0.3003
vn -0.5549 0.6198 0.5549
vn 0.7848 0.6198 -0.0000
vn -0.7250 0.6198 0.3003
vn 0.7250 0.6198 0.3003
vn 0.3770 0.9129 0.1562
vn -0.0809 0.9934 -0.0809
vn -0.0000 -0.0000 -1.0000
vt 0.235229 0.062719
vt 0.235206 0.000210
vt 0.528700 0.000104
vt 0.528722 0.062614
vt 0.235288 0.999254
vt 0.235425 0.936816
vt 0.528584 0.937458
vt 0.528447 0.999896
vt 0.235562 0.874377
vt 0.528721 0.875019
vt 0.237193 0.812360
vt 0.528857 0.812581
vt 0.235614 0.750336
vt 0.528857 0.750133
vt 0.235528 0.687871
vt 0.528856 0.687668
vt 0.235438 0.625303
vt 0.528855 0.625185
vt 0.235410 0.562796
vt 0.528856 0.562690
vt 0.235386 0.500287
vt 0.528858 0.500186
vt 0.235363 0.437777
vt 0.528857 0.437672
vt 0.235341 0.375268
vt 0.528835 0.375162
vt 0.235318 0.312758
vt 0.528812 0.312653
vt 0.235296 0.250248
vt 0.528790 0.250143
vt 0.235274 0.187739
vt 0.528767 0.187633
vt 0.235251 0.125229
vt 0.528745 0.125124
vt 0.162824 0.558051
vt 0.162803 0.505088
vt 0.162731 0.308011
vt 0.162712 0.255048
vt 0.529066 0.125960
vt 0.552984 0.068217
vt 0.686172 0.157211
vt 0.163073 0.745666
vt 0.105980 0.738707
vt 0.105927 0.699856
vt 0.163000 0.692740
vt 0.162796 0.994327
vt 0.162912 0.941425
vt 0.162798 0.683306
vt 0.162671 0.630168
vt 0.162776 0.433030
vt 0.162757 0.380067
vt 0.162664 0.120482
vt 0.162645 0.067519
vt 0.165053 0.812330
vt 0.162430 0.758758
vt 0.162709 0.245501
vt 0.162690 0.192538
vt 0.162933 0.931889
vt 0.163049 0.878986
vt 0.162754 0.370520
vt 0.162735 0.317557
vt 0.162642 0.057972
vt 0.162622 0.005009
vt 0.162799 0.495540
vt 0.162780 0.442577
vt 0.162853 0.620563
vt 0.162829 0.567602
vt 0.162686 0.182991
vt 0.162667 0.130028
vt 0.162388 0.865898
vt 0.105613 0.324620
vt 0.105627 0.363499
vt 0.033539 0.350434
vt 0.033534 0.337736
vt 0.032771 0.663641
vt 0.000104 0.657439
vt 0.032706 0.650797
vt 0.033929 0.725725
vt 0.033912 0.713035
vt 0.105591 0.262110
vt 0.105605 0.300989
vt 0.033516 0.287925
vt 0.033512 0.275226
vt 0.105582 0.238479
vt 0.105568 0.199601
vt 0.105537 0.113460
vt 0.105523 0.074581
vt 0.033494 0.225415
vt 0.033489 0.212717
vt 0.105501 0.012072
vt 0.105515 0.050950
vt 0.033426 0.037886
vt 0.033422 0.025188
vt 0.105710 0.574669
vt 0.105728 0.613546
vt 0.033641 0.600489
vt 0.033635 0.587791
vt 0.105546 0.137091
vt 0.105560 0.175970
vt 0.033471 0.162905
vt 0.033467 0.150207
vt 0.105838 0.948334
vt 0.105753 0.987168
vt 0.033780 0.973935
vt 0.033808 0.961251
vt 0.105682 0.512153
vt 0.105697 0.551031
vt 0.033610 0.537969
vt 0.033605 0.525271
vt 0.105974 0.885896
vt 0.105889 0.924730
vt 0.033917 0.911497
vt 0.033944 0.898813
vt 0.105658 0.449639
vt 0.105672 0.488518
vt 0.033583 0.475454
vt 0.033579 0.462755
vt 0.106922 0.816579
vt 0.104966 0.855901
vt 0.032718 0.839035
vt 0.033357 0.826191
vt 0.105636 0.387130
vt 0.105649 0.426008
vt 0.033561 0.412944
vt 0.033557 0.400246
vt 0.105414 0.676466
vt 0.105283 0.637359
vt 0.001294 0.031548
vt 0.001509 0.594154
vt 0.001339 0.156568
vt 0.001700 0.967523
vt 0.001477 0.531632
vt 0.033444 0.087697
vt 0.033449 0.100396
vt 0.001316 0.094058
vt 0.001837 0.905085
vt 0.001451 0.469116
vt 0.000540 0.830997
vt 0.001428 0.406606
vt 0.032735 0.785519
vt 0.033363 0.798364
vt 0.000549 0.793532
vt 0.001406 0.344097
vt 0.001813 0.719424
vt 0.001383 0.281587
vt 0.654922 0.314317
vt 0.717423 0.314317
vt 0.106923 0.808035
vt 0.104999 0.768710
vt 0.001361 0.219077
vt 0.717423 0.000104
vt 0.775166 0.024022
vt 0.819361 0.246205
vt 0.775166 0.290399
vt 0.552984 0.246205
vt 0.529066 0.188461
vt 0.597179 0.024022
vt 0.654922 0.000104
vt 0.843279 0.125960
vt 0.843279 0.188461
vt 0.597179 0.290399
vt 0.819361 0.068217
s 0
f 2/1/1 4/2/1 3/3/1 1/4/1
f 4/5/2 6/6/2 5/7/2 3/8/2
f 6/6/3 8/9/3 7/10/3 5/7/3
f 8/9/4 10/11/4 9/12/4 7/10/4
f 10/11/5 12/13/5 11/14/5 9/12/5
f 12/13/6 14/15/6 13/16/6 11/14/6
f 14/15/7 16/17/7 15/18/7 13/16/7
f 16/17/8 18/19/8 17/20/8 15/18/8
f 18/19/9 20/21/9 19/22/9 17/20/9
f 20/21/10 22/23/10 21/24/10 19/22/10
f 22/23/11 24/25/11 23/26/11 21/24/11
f 24/25/12 26/27/12 25/28/12 23/26/12
f 26/27/13 28/29/13 27/30/13 25/28/13
f 28/29/14 30/31/14 29/32/14 27/30/14
f 30/31/15 32/33/15 31/34/15 29/32/15
f 20/21/16 18/19/16 41/35/16 42/36/16
f 26/27/17 45/37/17 46/38/17 28/29/17
f 9/39/18 11/40/18 82/41/18
f 38/42/19 80/43/19 79/44/19 39/45/19
f 4/5/20 34/46/20 35/47/20 6/6/20
f 16/17/21 14/15/21 39/48/21 40/49/21
f 22/23/22 43/50/22 44/51/22 24/25/22
f 2/1/23 32/33/23 48/52/23 33/53/23
f 12/13/24 10/11/24 37/54/24 38/55/24
f 30/31/25 28/29/25 46/56/25 47/57/25
f 8/9/26 6/6/26 35/58/26 36/59/26
f 26/27/27 24/25/27 44/60/27 45/61/27
f 4/2/28 2/1/28 33/62/28 34/63/28
f 22/23/29 20/21/29 42/64/29 43/65/29
f 18/19/30 16/17/30 40/66/30 41/67/30
f 14/15/31 12/13/31 38/42/31 39/45/31
f 32/33/32 30/31/32 47/68/32 48/69/32
f 10/11/33 8/9/33 36/70/33 37/54/33
f 81/71/34 66/72/34 60/73/34 61/74/34
f 55/75/35 65/76/35 56/77/35
f 45/61/36 44/60/36 66/72/36 81/71/36
f 79/44/37 80/43/37 54/78/37 55/79/37
f 78/80/38 81/81/38 61/82/38 62/83/38
f 47/57/39 46/56/39 78/84/39 75/85/39
f 33/53/40 48/52/40 72/86/40 77/87/40
f 75/85/41 78/84/41 62/88/41 63/89/41
f 74/90/42 77/91/42 49/92/42 50/93/42
f 73/94/43 76/95/43 56/96/43 57/97/43
f 72/98/44 75/99/44 63/100/44 64/101/44
f 71/102/45 74/103/45 50/104/45 51/105/45
f 70/106/46 73/107/46 57/108/46 58/109/46
f 69/110/47 71/111/47 51/112/47 52/113/47
f 68/114/48 70/115/48 58/116/48 59/117/48
f 67/118/49 69/119/49 52/120/49 53/121/49
f 66/122/50 68/123/50 59/124/50 60/125/50
f 40/49/51 39/48/51 79/126/51 76/127/51
f 50/93/52 49/92/52 65/128/52
f 57/97/53 56/96/53 65/129/53
f 64/101/54 63/100/54 65/130/54
f 51/105/55 50/104/55 65/131/55
f 58/109/56 57/108/56 65/132/56
f 49/133/57 64/134/57 65/135/57
f 52/113/58 51/112/58 65/136/58
f 59/117/59 58/116/59 65/137/59
f 53/121/60 52/120/60 65/138/60
f 60/125/61 59/124/61 65/139/61
f 54/140/62 53/141/62 65/142/62
f 61/74/63 60/73/63 65/143/63
f 55/79/64 54/78/64 65/144/64
f 62/83/65 61/82/65 65/145/65
f 1/146/18 82/41/18 31/147/18
f 46/38/66 45/37/66 81/81/66 78/80/66
f 77/87/67 72/86/67 64/134/67 49/133/67
f 76/127/68 79/126/68 55/75/68 56/77/68
f 34/63/69 33/62/69 77/91/69 74/90/69
f 41/67/70 40/66/70 76/95/70 73/94/70
f 48/69/71 47/68/71 75/99/71 72/98/71
f 35/47/72 34/46/72 74/103/72 71/102/72
f 42/36/73 41/35/73 73/107/73 70/106/73
f 36/59/74 35/58/74 71/111/74 69/110/74
f 43/65/75 42/64/75 70/115/75 68/114/75
f 37/54/76 36/70/76 69/119/76 67/118/76
f 44/51/77 43/50/77 68/123/77 66/122/77
f 38/55/78 37/54/78 67/148/78 80/149/78
f 80/149/79 67/148/79 53/141/79 54/140/79
f 63/89/80 62/88/80 65/150/80
f 17/151/18 19/152/18 82/41/18
f 27/153/18 29/154/18 82/41/18
f 5/155/18 7/156/18 82/41/18
f 13/157/18 15/158/18 82/41/18
f 23/159/18 25/160/18 82/41/18
f 1/146/18 3/161/18 82/41/18
f 19/152/18 21/162/18 82/41/18
f 15/158/18 17/151/18 82/41/18
f 11/40/18 13/157/18 82/41/18
f 29/154/18 31/147/18 82/41/18
f 7/156/18 9/39/18 82/41/18
f 25/160/18 27/153/18 82/41/18
f 3/161/18 5/155/18 82/41/18
f 21/162/18 23/159/18 82/41/18
f 31/34/81 32/33/81 2/1/81 1/4/81
