# Blender 4.3.2
# www.blender.org
mtllib switchBase.mtl
o Cube
v 0.090000 0.060000 -0.030000
v 0.090000 -0.060000 -0.030000
v 0.090000 0.060000 0.030000
v 0.090000 -0.060000 0.030000
v -0.090000 0.060000 -0.030000
v -0.090000 -0.060000 -0.030000
v -0.090000 0.060000 0.030000
v -0.090000 -0.060000 0.030000
v 0.109438 0.060000 0.036479
v -0.109438 0.060000 0.036479
v 0.109438 0.060000 -0.036479
v -0.109438 0.060000 -0.036479
v 0.088974 0.072420 0.029658
v -0.088974 0.072420 0.029658
v 0.088974 0.072420 -0.029658
v -0.088974 0.072420 -0.029658
v 0.109438 0.072420 0.036479
v -0.109438 0.072420 0.036479
v 0.109438 0.072420 -0.036479
v -0.109438 0.072420 -0.036479
v 0.088974 0.063255 0.029658
v -0.088974 0.063255 0.029658
v 0.088974 0.063255 -0.029658
v -0.088974 0.063255 -0.029658
vn -0.0000 -1.0000 -0.0000
vn -0.0000 -0.0000 1.0000
vn -1.0000 -0.0000 -0.0000
vn 1.0000 -0.0000 -0.0000
vn -0.0000 -0.0000 -1.0000
vn -0.0000 1.0000 -0.0000
vt 0.262807 0.262807
vt 0.262807 0.025614
vt 0.288421 0.000000
vt 0.288421 0.288421
vt 0.025614 0.262807
vt 0.025614 0.025614
vt 0.237193 0.525614
vt 0.000000 0.525614
vt 0.000000 0.288421
vt 0.237193 0.288421
vt 0.464435 0.298372
vt 0.464435 0.525614
vt 0.237193 0.525614
vt 0.237193 0.298372
vt 0.237193 0.752855
vt 0.009952 0.752855
vt 0.009952 0.525614
vt 0.237193 0.525614
vt 0.464435 0.752855
vt 0.237193 0.752855
vt 0.237193 0.525614
vt 0.837864 0.245663
vt 0.837864 0.517144
vt 0.814755 0.517144
vt 0.814755 0.245663
vt 0.000000 0.288421
vt 0.000000 0.000000
vt 0.944162 0.468025
vt 0.944162 0.237069
vt 0.958159 0.237069
vt 0.958159 0.468025
vt 0.944162 0.006114
vt 0.944162 0.290188
vt 0.925193 0.290188
vt 0.925193 0.006114
vt 0.944162 0.574261
vt 0.925193 0.574261
vt 0.838585 0.525614
vt 0.838585 0.814034
vt 0.814034 0.814034
vt 0.814034 0.525614
vt 0.544387 0.032454
vt 0.320875 0.032454
vt 0.295172 0.006751
vt 0.570090 0.006751
vt 0.544387 0.255966
vt 0.570090 0.281670
vt 0.320875 0.255966
vt 0.295172 0.281670
vt 0.807307 0.467659
vt 0.580865 0.467659
vt 0.580865 0.241217
vt 0.807307 0.241217
vt 0.925193 0.805217
vt 0.939190 0.574261
vt 0.939190 0.805217
vt 0.944162 0.237069
vt 0.958159 0.006114
vt 0.958159 0.237069
vt 0.944162 0.698980
vt 0.944162 0.468025
vt 0.958159 0.468025
vt 0.958159 0.698980
s 0
usemtl Material
f 5/1/1 7/2/1 10/3/1 12/4/1
f 4/5/2 3/6/2 7/2/2 8/1/2
f 8/7/3 7/8/3 5/9/3 6/10/3
f 6/11/1 2/12/1 4/13/1 8/14/1
f 2/15/4 1/16/4 3/17/4 4/18/4
f 6/19/5 5/20/5 1/21/5 2/12/5
f 12/22/3 10/23/3 18/24/3 20/25/3
f 3/6/1 1/5/1 11/26/1 9/27/1
f 1/5/1 5/1/1 12/4/1 11/26/1
f 7/2/1 3/6/1 9/27/1 10/3/1
f 15/28/2 16/29/2 24/30/2 23/31/2
f 10/32/2 9/33/2 17/34/2 18/35/2
f 11/33/5 12/36/5 20/37/5 19/34/5
f 9/38/4 11/39/4 19/40/4 17/41/4
f 13/42/6 14/43/6 18/44/6 17/45/6
f 15/46/6 13/42/6 17/45/6 19/47/6
f 14/43/6 16/48/6 20/49/6 18/44/6
f 16/48/6 15/46/6 19/47/6 20/49/6
f 23/50/6 24/51/6 22/52/6 21/53/6
f 13/54/3 15/37/3 23/55/3 21/56/3
f 16/57/4 14/32/4 22/58/4 24/59/4
f 14/60/5 13/61/5 21/62/5 22/63/5
